<svg id="Layer_1" xmlns="http://www.w3.org/2000/svg" viewBox="0 0 33 31.032" width="33" height="31.032"><defs><style>.cls-1{fill:#010101;}</style></defs><path points="44.26 32.35 27.72 67.12 43.29 74.9 0 91.93 44.26 0 44.26 32.35" d="m14.941 10.92 -5.583 11.737 5.256 2.627L0 31.032 14.941 0z"/><path points="53.5 32.35 70.04 67.12 54.47 74.9 97.76 91.93 53.5 0 53.5 32.35" d="m18.059 10.92 5.583 11.737 -5.256 2.627L33 31.032 18.059 0z"/><path class="cls-1" points="48.64 43.78 58.33 62.94 48.64 67.69 39.47 62.92 48.64 43.78" d="m16.419 14.778 3.271 6.468 -3.271 1.604 -3.096 -1.61z"/></svg>